<svg width="138" height="15" viewBox="0 0 138 15" fill="none" xmlns="http://www.w3.org/2000/svg">
<path d="M4.88281 0.328125C6.7513 0.341146 8.34635 1.00846 9.66797 2.33008C11.0026 3.66471 11.6699 5.27604 11.6699 7.16406C11.6699 9.05208 11.0026 10.6634 9.66797 11.998C8.34635 13.3197 6.7513 13.987 4.88281 14H0V0.328125H4.88281ZM4.88281 11.0703C5.94401 11.0573 6.84896 10.6764 7.59766 9.92773C8.35938 9.16602 8.74023 8.24479 8.74023 7.16406C8.74023 6.08333 8.35938 5.16211 7.59766 4.40039C6.84896 3.65169 5.94401 3.27083 4.88281 3.25781H2.92969V11.0703H4.88281ZM24.4141 0.328125V3.25781H16.6016V5.69922H22.4609V8.62891H16.6016V11.0703H24.4141V14H13.6719V0.328125H24.4141ZM32.7148 14H26.3672V11.0703H32.7148C33.0534 11.0703 33.3398 10.9531 33.5742 10.7188C33.8151 10.4779 33.9355 10.1882 33.9355 9.84961C33.9355 9.51107 33.8151 9.22461 33.5742 8.99023C33.3398 8.74935 33.0534 8.62891 32.7148 8.62891H30.2734C29.1276 8.62891 28.1478 8.22526 27.334 7.41797C26.5267 6.60417 26.123 5.62435 26.123 4.47852C26.123 3.33268 26.5267 2.35612 27.334 1.54883C28.1478 0.735026 29.1276 0.328125 30.2734 0.328125H36.6211V3.25781H30.2734C29.9349 3.25781 29.6452 3.37826 29.4043 3.61914C29.1699 3.85352 29.0527 4.13997 29.0527 4.47852C29.0527 4.81706 29.1699 5.10677 29.4043 5.34766C29.6452 5.58203 29.9349 5.69922 30.2734 5.69922H32.7148C33.8607 5.69922 34.8372 6.10612 35.6445 6.91992C36.4583 7.72721 36.8652 8.70378 36.8652 9.84961C36.8652 10.9954 36.4583 11.9753 35.6445 12.7891C34.8372 13.5964 33.8607 14 32.7148 14ZM41.5039 0.328125V14H38.5742V0.328125H41.5039ZM55.1758 12.0469C53.7826 13.349 52.1549 14 50.293 14C48.4049 14 46.7936 13.3327 45.459 11.998C44.1243 10.6634 43.457 9.05208 43.457 7.16406C43.457 5.27604 44.1243 3.66471 45.459 2.33008C46.7936 0.995443 48.4049 0.328125 50.293 0.328125C52.181 0.328125 53.7923 0.995443 55.127 2.33008L53.0566 4.40039C52.2949 3.63867 51.3737 3.25781 50.293 3.25781C49.2122 3.25781 48.291 3.63867 47.5293 4.40039C46.7676 5.16211 46.3867 6.08333 46.3867 7.16406C46.3867 8.24479 46.7676 9.16602 47.5293 9.92773C48.291 10.6895 49.2122 11.0703 50.293 11.0703C51.0156 11.0703 51.6667 10.901 52.2461 10.5625V8.62891H49.3164V5.69922H55.1758V12.0469ZM60.0586 6.34375V14H57.1289V0.289062L66.8945 7.98438V0.328125H69.8242V14.0391L60.0586 6.34375ZM82.5195 0.328125V3.25781H74.707V5.69922H82.5195V8.62891H74.707V14H71.7773V0.328125H82.5195ZM91.3086 0.328125C93.1966 0.328125 94.8079 0.995443 96.1426 2.33008C97.4772 3.66471 98.1445 5.27604 98.1445 7.16406C98.1445 9.05208 97.4772 10.6634 96.1426 11.998C94.8079 13.3327 93.1966 14 91.3086 14C89.4206 14 87.8092 13.3327 86.4746 11.998C85.14 10.6634 84.4727 9.05208 84.4727 7.16406C84.4727 5.27604 85.14 3.66471 86.4746 2.33008C87.8092 0.995443 89.4206 0.328125 91.3086 0.328125ZM91.3086 3.25781C90.2279 3.25781 89.3066 3.63867 88.5449 4.40039C87.7832 5.16211 87.4023 6.08333 87.4023 7.16406C87.4023 8.24479 87.7832 9.16602 88.5449 9.92773C89.3066 10.6895 90.2279 11.0703 91.3086 11.0703C92.3893 11.0703 93.3105 10.6895 94.0723 9.92773C94.834 9.16602 95.2148 8.24479 95.2148 7.16406C95.2148 6.08333 94.834 5.16211 94.0723 4.40039C93.3105 3.63867 92.3893 3.25781 91.3086 3.25781ZM103.027 3.25781V5.69922H106.934C107.272 5.69922 107.559 5.58203 107.793 5.34766C108.034 5.10677 108.154 4.81706 108.154 4.47852C108.154 4.13997 108.034 3.85352 107.793 3.61914C107.559 3.37826 107.272 3.25781 106.934 3.25781H103.027ZM103.027 6.40234V14H100.098V0.328125H106.934C108.079 0.328125 109.056 0.735026 109.863 1.54883C110.677 2.35612 111.084 3.33268 111.084 4.47852C111.084 5.62435 110.68 6.60091 109.873 7.4082C109.574 7.70768 109.251 7.95182 108.906 8.14062L112.715 11.9492L110.645 14.0195L103.027 6.40234ZM124.512 12.0469C123.118 13.349 121.491 14 119.629 14C117.741 14 116.13 13.3327 114.795 11.998C113.46 10.6634 112.793 9.05208 112.793 7.16406C112.793 5.27604 113.46 3.66471 114.795 2.33008C116.13 0.995443 117.741 0.328125 119.629 0.328125C121.517 0.328125 123.128 0.995443 124.463 2.33008L122.393 4.40039C121.631 3.63867 120.71 3.25781 119.629 3.25781C118.548 3.25781 117.627 3.63867 116.865 4.40039C116.104 5.16211 115.723 6.08333 115.723 7.16406C115.723 8.24479 116.104 9.16602 116.865 9.92773C117.627 10.6895 118.548 11.0703 119.629 11.0703C120.352 11.0703 121.003 10.901 121.582 10.5625V8.62891H118.652V5.69922H124.512V12.0469ZM137.207 0.328125V3.25781H129.395V5.69922H135.254V8.62891H129.395V11.0703H137.207V14H126.465V0.328125H137.207Z" fill="#25292E"/>
</svg>
