<svg width="83" height="10" viewBox="0 0 83 10" fill="none" xmlns="http://www.w3.org/2000/svg">
<path d="M2.92969 0.796875C4.05078 0.804687 5.00781 1.20508 5.80078 1.99805C6.60156 2.79883 7.00195 3.76562 7.00195 4.89844C7.00195 6.03125 6.60156 6.99805 5.80078 7.79883C5.00781 8.5918 4.05078 8.99219 2.92969 9H0V0.796875H2.92969ZM2.92969 7.24219C3.56641 7.23438 4.10938 7.00586 4.55859 6.55664C5.01562 6.09961 5.24414 5.54688 5.24414 4.89844C5.24414 4.25 5.01562 3.69727 4.55859 3.24023C4.10938 2.79102 3.56641 2.5625 2.92969 2.55469H1.75781V7.24219H2.92969ZM14.6484 0.796875V2.55469H9.96094V4.01953H13.4766V5.77734H9.96094V7.24219H14.6484V9H8.20312V0.796875H14.6484ZM19.6289 9H15.8203V7.24219H19.6289C19.832 7.24219 20.0039 7.17188 20.1445 7.03125C20.2891 6.88672 20.3613 6.71289 20.3613 6.50977C20.3613 6.30664 20.2891 6.13477 20.1445 5.99414C20.0039 5.84961 19.832 5.77734 19.6289 5.77734H18.1641C17.4766 5.77734 16.8887 5.53516 16.4004 5.05078C15.916 4.5625 15.6738 3.97461 15.6738 3.28711C15.6738 2.59961 15.916 2.01367 16.4004 1.5293C16.8887 1.04102 17.4766 0.796875 18.1641 0.796875H21.9727V2.55469H18.1641C17.9609 2.55469 17.7871 2.62695 17.6426 2.77148C17.502 2.91211 17.4316 3.08398 17.4316 3.28711C17.4316 3.49023 17.502 3.66406 17.6426 3.80859C17.7871 3.94922 17.9609 4.01953 18.1641 4.01953H19.6289C20.3164 4.01953 20.9023 4.26367 21.3867 4.75195C21.875 5.23633 22.1191 5.82227 22.1191 6.50977C22.1191 7.19727 21.875 7.78516 21.3867 8.27344C20.9023 8.75781 20.3164 9 19.6289 9ZM24.9023 0.796875V9H23.1445V0.796875H24.9023ZM33.1055 7.82812C32.2695 8.60938 31.293 9 30.1758 9C29.043 9 28.0762 8.59961 27.2754 7.79883C26.4746 6.99805 26.0742 6.03125 26.0742 4.89844C26.0742 3.76562 26.4746 2.79883 27.2754 1.99805C28.0762 1.19727 29.043 0.796875 30.1758 0.796875C31.3086 0.796875 32.2754 1.19727 33.0762 1.99805L31.834 3.24023C31.377 2.7832 30.8242 2.55469 30.1758 2.55469C29.5273 2.55469 28.9746 2.7832 28.5176 3.24023C28.0605 3.69727 27.832 4.25 27.832 4.89844C27.832 5.54688 28.0605 6.09961 28.5176 6.55664C28.9746 7.01367 29.5273 7.24219 30.1758 7.24219C30.6094 7.24219 31 7.14062 31.3477 6.9375V5.77734H29.5898V4.01953H33.1055V7.82812ZM36.0352 4.40625V9H34.2773V0.773438L40.1367 5.39062V0.796875H41.8945V9.02344L36.0352 4.40625ZM49.5117 0.796875V2.55469H44.8242V4.01953H49.5117V5.77734H44.8242V9H43.0664V0.796875H49.5117ZM54.7852 0.796875C55.918 0.796875 56.8848 1.19727 57.6855 1.99805C58.4863 2.79883 58.8867 3.76562 58.8867 4.89844C58.8867 6.03125 58.4863 6.99805 57.6855 7.79883C56.8848 8.59961 55.918 9 54.7852 9C53.6523 9 52.6855 8.59961 51.8848 7.79883C51.084 6.99805 50.6836 6.03125 50.6836 4.89844C50.6836 3.76562 51.084 2.79883 51.8848 1.99805C52.6855 1.19727 53.6523 0.796875 54.7852 0.796875ZM54.7852 2.55469C54.1367 2.55469 53.584 2.7832 53.127 3.24023C52.6699 3.69727 52.4414 4.25 52.4414 4.89844C52.4414 5.54688 52.6699 6.09961 53.127 6.55664C53.584 7.01367 54.1367 7.24219 54.7852 7.24219C55.4336 7.24219 55.9863 7.01367 56.4434 6.55664C56.9004 6.09961 57.1289 5.54688 57.1289 4.89844C57.1289 4.25 56.9004 3.69727 56.4434 3.24023C55.9863 2.7832 55.4336 2.55469 54.7852 2.55469ZM61.8164 2.55469V4.01953H64.1602C64.3633 4.01953 64.5352 3.94922 64.6758 3.80859C64.8203 3.66406 64.8926 3.49023 64.8926 3.28711C64.8926 3.08398 64.8203 2.91211 64.6758 2.77148C64.5352 2.62695 64.3633 2.55469 64.1602 2.55469H61.8164ZM61.8164 4.44141V9H60.0586V0.796875H64.1602C64.8477 0.796875 65.4336 1.04102 65.918 1.5293C66.4062 2.01367 66.6504 2.59961 66.6504 3.28711C66.6504 3.97461 66.4082 4.56055 65.9238 5.04492C65.7441 5.22461 65.5508 5.37109 65.3438 5.48438L67.6289 7.76953L66.3867 9.01172L61.8164 4.44141ZM74.707 7.82812C73.8711 8.60938 72.8945 9 71.7773 9C70.6445 9 69.6777 8.59961 68.877 7.79883C68.0762 6.99805 67.6758 6.03125 67.6758 4.89844C67.6758 3.76562 68.0762 2.79883 68.877 1.99805C69.6777 1.19727 70.6445 0.796875 71.7773 0.796875C72.9102 0.796875 73.877 1.19727 74.6777 1.99805L73.4355 3.24023C72.9785 2.7832 72.4258 2.55469 71.7773 2.55469C71.1289 2.55469 70.5762 2.7832 70.1191 3.24023C69.6621 3.69727 69.4336 4.25 69.4336 4.89844C69.4336 5.54688 69.6621 6.09961 70.1191 6.55664C70.5762 7.01367 71.1289 7.24219 71.7773 7.24219C72.2109 7.24219 72.6016 7.14062 72.9492 6.9375V5.77734H71.1914V4.01953H74.707V7.82812ZM82.3242 0.796875V2.55469H77.6367V4.01953H81.1523V5.77734H77.6367V7.24219H82.3242V9H75.8789V0.796875H82.3242Z" fill="#25292E"/>
</svg>
