<svg width="25" height="25" viewBox="0 0 25 25" fill="none" xmlns="http://www.w3.org/2000/svg">
<g id="Group">
<g id="Clip path group">
<mask id="mask0_65_1324" style="mask-type:luminance" maskUnits="userSpaceOnUse" x="0" y="0" width="25" height="25">
<g id="SVGID_2_">
<path id="Vector" d="M23.972 10.3182H12.7731V14.9545H19.2193C18.6184 17.9 16.1055 19.5909 12.7731 19.5909C8.8399 19.5909 5.67145 16.4273 5.67145 12.5C5.67145 8.57273 8.8399 5.40909 12.7731 5.40909C14.4666 5.40909 15.9962 6.0091 17.198 6.99092L20.6943 3.5C18.5638 1.64545 15.8323 0.5 12.7731 0.5C6.10847 0.5 0.754883 5.84545 0.754883 12.5C0.754883 19.1545 6.10847 24.5 12.7731 24.5C18.7823 24.5 24.2451 20.1364 24.2451 12.5C24.2451 11.7909 24.1359 11.0273 23.972 10.3182Z" fill="white"/>
</g>
</mask>
<g mask="url(#mask0_65_1324)">
<path id="Vector_2" d="M-0.337891 19.5909V5.40911L8.94895 12.5L-0.337891 19.5909Z" fill="#FBBC05"/>
</g>
</g>
<g id="Clip path group_2">
<mask id="mask1_65_1324" style="mask-type:luminance" maskUnits="userSpaceOnUse" x="0" y="0" width="25" height="25">
<g id="SVGID_4_">
<path id="Vector_3" d="M23.972 10.3182H12.7731V14.9545H19.2193C18.6184 17.9 16.1055 19.5909 12.7731 19.5909C8.8399 19.5909 5.67145 16.4273 5.67145 12.5C5.67145 8.57273 8.8399 5.40909 12.7731 5.40909C14.4666 5.40909 15.9962 6.0091 17.198 6.99092L20.6943 3.5C18.5638 1.64545 15.8323 0.5 12.7731 0.5C6.10847 0.5 0.754883 5.84545 0.754883 12.5C0.754883 19.1545 6.10847 24.5 12.7731 24.5C18.7823 24.5 24.2451 20.1364 24.2451 12.5C24.2451 11.7909 24.1359 11.0273 23.972 10.3182Z" fill="white"/>
</g>
</mask>
<g mask="url(#mask1_65_1324)">
<path id="Vector_4" d="M-0.337891 5.40911L8.94895 12.5L12.7729 9.17276L25.8838 7.04548V-0.590889H-0.337891V5.40911Z" fill="#EA4335"/>
</g>
</g>
<g id="Group_2">
<g id="Clip path group_3">
<mask id="mask2_65_1324" style="mask-type:luminance" maskUnits="userSpaceOnUse" x="0" y="0" width="25" height="25">
<g id="SVGID_6_">
<path id="Vector_5" d="M23.972 10.3182H12.7731V14.9545H19.2193C18.6184 17.9 16.1055 19.5909 12.7731 19.5909C8.8399 19.5909 5.67145 16.4273 5.67145 12.5C5.67145 8.57273 8.8399 5.40909 12.7731 5.40909C14.4666 5.40909 15.9962 6.0091 17.198 6.99092L20.6943 3.5C18.5638 1.64545 15.8323 0.5 12.7731 0.5C6.10847 0.5 0.754883 5.84545 0.754883 12.5C0.754883 19.1545 6.10847 24.5 12.7731 24.5C18.7823 24.5 24.2451 20.1364 24.2451 12.5C24.2451 11.7909 24.1359 11.0273 23.972 10.3182Z" fill="white"/>
</g>
</mask>
<g mask="url(#mask2_65_1324)">
<path id="Vector_6" d="M-0.337891 19.5909L16.0507 7.04548L20.3663 7.59093L25.8838 -0.590889V25.5909H-0.337891V19.5909Z" fill="#34A853"/>
</g>
</g>
</g>
<g id="Group_3">
<g id="Clip path group_4">
<mask id="mask3_65_1324" style="mask-type:luminance" maskUnits="userSpaceOnUse" x="0" y="0" width="25" height="25">
<g id="SVGID_8_">
<path id="Vector_7" d="M23.972 10.3182H12.7731V14.9545H19.2193C18.6184 17.9 16.1055 19.5909 12.7731 19.5909C8.8399 19.5909 5.67145 16.4273 5.67145 12.5C5.67145 8.57273 8.8399 5.40909 12.7731 5.40909C14.4666 5.40909 15.9962 6.0091 17.198 6.99092L20.6943 3.5C18.5638 1.64545 15.8323 0.5 12.7731 0.5C6.10847 0.5 0.754883 5.84545 0.754883 12.5C0.754883 19.1545 6.10847 24.5 12.7731 24.5C18.7823 24.5 24.2451 20.1364 24.2451 12.5C24.2451 11.7909 24.1359 11.0273 23.972 10.3182Z" fill="white"/>
</g>
</mask>
<g mask="url(#mask3_65_1324)">
<path id="Vector_8" d="M25.8841 25.5909L8.9493 12.5L6.76416 10.8637L25.8841 5.40911V25.5909Z" fill="#4285F4"/>
</g>
</g>
</g>
</g>
</svg>
